<?xml version="1.0"?>
<svg xmlns="http://www.w3.org/2000/svg" version="1.1" viewBox="30 80 320 60"><path fill="#ffffff" d="M71.248046875,116.7890625l-5.38671875,0l-8.6953125-15.12109375l-0.123046875,0q0.259765625,4.005859375,0.259765625,5.71484375l0,9.40625l-3.787109375,0l0-19.98828125l5.345703125,0l8.681640625,14.970703125l0.095703125,0q-0.205078125-3.896484375-0.205078125-5.509765625l0-9.4609375l3.814453125,0l0,19.98828125z M84.20583984375,104.18359375q-1.326171875,0-2.078125,0.8408203125t-0.861328125,2.3857421875l5.8515625,0q-0.02734375-1.544921875-0.806640625-2.3857421875t-2.10546875-0.8408203125z M84.79373046875,117.0625q-3.69140625,0-5.76953125-2.037109375t-2.078125-5.76953125q0-3.841796875,1.9208984375-5.9404296875t5.3115234375-2.0986328125q3.240234375,0,5.044921875,1.845703125t1.8046875,5.099609375l0,2.0234375l-9.857421875,0q0.068359375,1.77734375,1.052734375,2.775390625t2.76171875,0.998046875q1.380859375,0,2.611328125-0.287109375t2.5703125-0.916015625l0,3.2265625q-1.09375,0.546875-2.337890625,0.8134765625t-3.03515625,0.2666015625z M102.6733984375,104.18359375q-1.326171875,0-2.078125,0.8408203125t-0.861328125,2.3857421875l5.8515625,0q-0.02734375-1.544921875-0.806640625-2.3857421875t-2.10546875-0.8408203125z M103.2612890625,117.0625q-3.69140625,0-5.76953125-2.037109375t-2.078125-5.76953125q0-3.841796875,1.9208984375-5.9404296875t5.3115234375-2.0986328125q3.240234375,0,5.044921875,1.845703125t1.8046875,5.099609375l0,2.0234375l-9.857421875,0q0.068359375,1.77734375,1.052734375,2.775390625t2.76171875,0.998046875q1.380859375,0,2.611328125-0.287109375t2.5703125-0.916015625l0,3.2265625q-1.09375,0.546875-2.337890625,0.8134765625t-3.03515625,0.2666015625z M119.37728515625,105.673828125l1.3671875,0q2.009765625,0,2.966796875-0.669921875t0.95703125-2.10546875q0-1.421875-0.9775390625-2.0234375t-3.0283203125-0.6015625l-1.28515625,0l0,5.400390625z M119.37728515625,109.119140625l0,7.669921875l-4.23828125,0l0-19.98828125l5.82421875,0q4.07421875,0,6.029296875,1.4833984375t1.955078125,4.5048828125q0,1.763671875-0.970703125,3.1376953125t-2.748046875,2.1533203125q4.51171875,6.740234375,5.87890625,8.708984375l-4.703125,0l-4.771484375-7.669921875l-2.255859375,0z M138.542109375,109.119140625q0,2.26953125,0.7451171875,3.431640625t2.4267578125,1.162109375q1.66796875,0,2.3994140625-1.1552734375t0.7314453125-3.4384765625q0-2.26953125-0.73828125-3.404296875t-2.419921875-1.134765625q-1.66796875,0-2.40625,1.1279296875t-0.73828125,3.4111328125z M149.11046875,109.119140625q0,3.732421875-1.96875,5.837890625t-5.482421875,2.10546875q-2.201171875,0-3.8828125-0.9638671875t-2.583984375-2.7685546875t-0.90234375-4.2109375q0-3.74609375,1.955078125-5.82421875t5.49609375-2.078125q2.201171875,0,3.8828125,0.95703125t2.583984375,2.748046875t0.90234375,4.197265625z"/><path fill="#ffffff" d="M159.98,116.8l0-2.38l2.1-0.84l0-13.216l-2.1-0.84l0-2.324l8.54-0.14l0,2.464l-2.1,0.84l0,4.816l1.904,0l4.676-7.98l5.18-0.14l0,2.464l-2.66,0.784l-3.668,6.104l5.208,7.168l2.1,0.84l0,2.38l-8.54,0l0-2.38l1.68-0.84l-3.836-5.32l-2.044,0l0,5.32l2.1,0.84l0,2.38l-8.54,0z M191.63428,116.8l-0.504-1.82s-2.156,2.1-4.536,2.1c-2.716,0-4.368-1.596-4.368-4.396c0-3.304,2.492-4.62,6.748-4.62l1.96,0l0-1.54c0-1.428-0.756-2.044-2.156-2.044c-1.428,0-2.464,0.42-2.464,0.42l-0.42,1.764l-2.52,0l-0.196-4.144s3.388-1.12,6.076-1.12c4.256,0,5.88,1.484,5.88,5.544l0,6.916l2.1,0.504l0,2.24z M190.93428,110.444l-1.596,0c-2.184,0-3.052,0.56-3.052,1.82c0,1.064,0.588,1.68,1.652,1.68c1.484,0,2.996-1.624,2.996-1.624l0-1.876z M206.74056,101.68l0.252,1.932s2.016-2.212,3.892-2.212c1.54,0,2.604,0.504,2.604,0.504l-0.224,5.376l-2.52,0l-0.42-2.38c-1.624,0-3.024,1.568-3.024,1.568l0,7.392l2.8,0.7l0,2.24l-9.24,0l0-2.24l2.24-0.7l0-9.1l-2.24-0.7l0-2.24z M226.49484,113.216l1.008,2.128c-1.372,1.008-2.94,1.736-4.76,1.736c-3.22,0-4.144-2.24-4.144-5.46l0-6.44l-2.604,0l0-2.716l2.604-0.364l0-3.864l4.2-0.756l0,4.62l3.92,0l0,3.08l-3.92,0l0,6.16c0,1.792,0.308,2.52,1.484,2.52c0.756,0,1.848-0.448,2.212-0.644z"/></svg>
