<?xml version="1.0"?>
<svg xmlns="http://www.w3.org/2000/svg" version="1.1" viewBox="30 80 320 60"><path fill="#000000" d="M71.2646484375,127.58203125l-8.849609375,0l-14.28515625-24.841796875l-0.2021484375,0q0.4267578125,6.5810546875,0.4267578125,9.388671875l0,15.453125l-6.2216796875,0l0-32.837890625l8.7822265625,0l14.2626953125,24.5947265625l0.1572265625,0q-0.3369140625-6.4013671875-0.3369140625-9.0517578125l0-15.54296875l6.2666015625,0l0,32.837890625z M92.552451171875,106.873046875q-2.1787109375,0-3.4140625,1.38134765625t-1.4150390625,3.91943359375l9.61328125,0q-0.044921875-2.5380859375-1.3251953125-3.91943359375t-3.458984375-1.38134765625z M93.518271484375,128.03125q-6.064453125,0-9.478515625-3.3466796875t-3.4140625-9.478515625q0-6.3115234375,3.15576171875-9.75927734375t8.72607421875-3.44775390625q5.3232421875,0,8.2880859375,3.0322265625t2.96484375,8.3779296875l0,3.32421875l-16.1943359375,0q0.1123046875,2.919921875,1.7294921875,4.5595703125t4.537109375,1.6396484375q2.2685546875,0,4.2900390625-0.4716796875t4.22265625-1.5048828125l0,5.30078125q-1.796875,0.8984375-3.8408203125,1.33642578125t-4.986328125,0.43798828125z M122.89201171875,106.873046875q-2.1787109375,0-3.4140625,1.38134765625t-1.4150390625,3.91943359375l9.61328125,0q-0.044921875-2.5380859375-1.3251953125-3.91943359375t-3.458984375-1.38134765625z M123.85783203125,128.03125q-6.064453125,0-9.478515625-3.3466796875t-3.4140625-9.478515625q0-6.3115234375,3.15576171875-9.75927734375t8.72607421875-3.44775390625q5.3232421875,0,8.2880859375,3.0322265625t2.96484375,8.3779296875l0,3.32421875l-16.1943359375,0q0.1123046875,2.919921875,1.7294921875,4.5595703125t4.537109375,1.6396484375q2.2685546875,0,4.2900390625-0.4716796875t4.22265625-1.5048828125l0,5.30078125q-1.796875,0.8984375-3.8408203125,1.33642578125t-4.986328125,0.43798828125z M150.33411132813,109.3212890625l2.24609375,0q3.3017578125,0,4.8740234375-1.1005859375t1.572265625-3.458984375q0-2.3359375-1.60595703125-3.32421875t-4.97509765625-0.98828125l-2.111328125,0l0,8.8720703125z M150.33411132813,114.9814453125l0,12.6005859375l-6.962890625,0l0-32.837890625l9.568359375,0q6.693359375,0,9.9052734375,2.43701171875t3.2119140625,7.40087890625q0,2.8974609375-1.5947265625,5.15478515625t-4.5146484375,3.53759765625q7.412109375,11.0732421875,9.658203125,14.3076171875l-7.7265625,0l-7.8388671875-12.6005859375l-3.7060546875,0z M181.8191796875,114.9814453125q0,3.728515625,1.22412109375,5.6376953125t3.98681640625,1.9091796875q2.740234375,0,3.94189453125-1.89794921875t1.20166015625-5.64892578125q0-3.728515625-1.212890625-5.5927734375t-3.9755859375-1.8642578125q-2.740234375,0-3.953125,1.85302734375t-1.212890625,5.60400390625z M199.181484375,114.9814453125q0,6.1318359375-3.234375,9.5908203125t-9.0068359375,3.458984375q-3.6162109375,0-6.37890625-1.58349609375t-4.2451171875-4.54833984375t-1.482421875-6.91796875q0-6.154296875,3.2119140625-9.568359375t9.029296875-3.4140625q3.6162109375,0,6.37890625,1.572265625t4.2451171875,4.5146484375t1.482421875,6.8955078125z"/><path fill="#000000" d="M215.61,127.6l0-3.91l3.45-1.38l0-21.712l-3.45-1.38l0-3.818l14.03-0.23l0,4.048l-3.45,1.38l0,7.912l3.128,0l7.682-13.11l8.51-0.23l0,4.048l-4.37,1.288l-6.026,10.028l8.556,11.776l3.45,1.38l0,3.91l-14.03,0l0-3.91l2.76-1.38l-6.302-8.74l-3.358,0l0,8.74l3.45,1.38l0,3.91l-14.03,0z M267.61346,127.6l-0.828-2.99s-3.542,3.45-7.452,3.45c-4.462,0-7.176-2.622-7.176-7.222c0-5.428,4.094-7.59,11.086-7.59l3.22,0l0-2.53c0-2.346-1.242-3.358-3.542-3.358c-2.346,0-4.048,0.69-4.048,0.69l-0.69,2.898l-4.14,0l-0.322-6.808s5.566-1.84,9.982-1.84c6.992,0,9.66,2.438,9.66,9.108l0,11.362l3.45,0.828l0,3.68z M266.46346,117.158l-2.622,0c-3.588,0-5.014,0.92-5.014,2.99c0,1.748,0.966,2.76,2.714,2.76c2.438,0,4.922-2.668,4.922-2.668l0-3.082z M292.43092,102.76l0.414,3.174s3.312-3.634,6.394-3.634c2.53,0,4.278,0.828,4.278,0.828l-0.368,8.832l-4.14,0l-0.69-3.91c-2.668,0-4.968,2.576-4.968,2.576l0,12.144l4.6,1.15l0,3.68l-15.18,0l0-3.68l3.68-1.15l0-14.95l-3.68-1.15l0-3.68z M324.88438,121.712l1.656,3.496c-2.254,1.656-4.83,2.852-7.82,2.852c-5.29,0-6.808-3.68-6.808-8.97l0-10.58l-4.278,0l0-4.462l4.278-0.598l0-6.348l6.9-1.242l0,7.59l6.44,0l0,5.06l-6.44,0l0,10.12c0,2.944,0.506,4.14,2.438,4.14c1.242,0,3.036-0.736,3.634-1.058z"/></svg>
